<svg xmlns="http://www.w3.org/2000/svg" width="400" height="88" viewBox="0 0 400 88">
  <metadata><?xpacket begin="﻿" id="W5M0MpCehiHzreSzNTczkc9d"?>
<x:xmpmeta xmlns:x="adobe:ns:meta/" x:xmptk="Adobe XMP Core 5.6-c148 79.164036, 2019/08/13-01:06:57        ">
   <rdf:RDF xmlns:rdf="http://www.w3.org/1999/02/22-rdf-syntax-ns#">
      <rdf:Description rdf:about=""
            xmlns:xmp="http://ns.adobe.com/xap/1.0/">
         <xmp:CreatorTool>Adobe Photoshop 21.0 (Macintosh)</xmp:CreatorTool>
      </rdf:Description>
   </rdf:RDF>
</x:xmpmeta>
                                                                                                    
                                                                                                    
                                                                                                    
                                                                                                    
                                                                                                    
                                                                                                    
                                                                                                    
                                                                                                    
                                                                                                    
                                                                                                    
                                                                                                    
                                                                                                    
                                                                                                    
                                                                                                    
                                                                                                    
                                                                                                    
                                                                                                    
                                                                                                    
                                                                                                    
                                                                                                    
                           
<?xpacket end="w"?></metadata>
<defs>
    <style>
      .cls-1 {
        fill: #ce171f;
      }

      .cls-1, .cls-2 {
        fill-rule: evenodd;
      }

      .cls-2 {
        fill: #939598;
      }
    </style>
  </defs>
  <path id="WINDEL_copy_2" data-name="WINDEL copy 2" class="cls-1" d="M14.358,59.014H34L45.329,21.746,56.7,59.014H76.344L90.635-.178H71.706L64.848,32.915,54.8-.178H35.839L25.812,32.959,18.962-.178H-0.065Zm83.618,0h20.077V-0.178H97.976V59.014Zm34.582,0H151.4v-32.5l24.278,32.5h18.883V-0.178H175.674V32.57L151.264-.178H132.558V59.014Zm75.576,0H237.9a50.593,50.593,0,0,0,11.94-1.615,22.028,22.028,0,0,0,9.022-4.7,24.436,24.436,0,0,0,6.567-8.762q2.364-5.228,2.366-14.717A40.438,40.438,0,0,0,266.2,17.749a25.116,25.116,0,0,0-5.13-9.488A23,23,0,0,0,252.113,2Q246.7-.178,237.9-0.178H208.134V59.014Zm25.029-45.787q7.784,0,11.144,3.472t3.361,12.88q0,7.107-1.5,10.276a8.909,8.909,0,0,1-4.157,4.441q-2.654,1.272-8.933,1.272h-4.909V13.227h5ZM278.27,59.014h54.659v-13.4H298.347V33.94h31.177V21.868H298.347V12.46h33.609V-0.178H278.27V59.014Zm65.449,0h51.3V44.438H363.752V-0.178H343.719V59.014ZM456.338,153.9m100.2-12.055"/>
  <path id="WINDEL_copy_3" data-name="WINDEL copy 3" class="cls-2" d="M13.116,64.669H231.728v2.5H13.116v-2.5Zm0,9.983H231.728v2.486H13.116V74.652Zm227.121,9.607a7.407,7.407,0,0,0,3.347,2.763,13.4,13.4,0,0,0,5.289.918,10.652,10.652,0,0,0,4.48-.911,7,7,0,0,0,3.053-2.55,6.31,6.31,0,0,0,1.062-3.492,5.762,5.762,0,0,0-.967-3.3,7.047,7.047,0,0,0-3-2.367,30.739,30.739,0,0,0-5.146-1.481q-3.75-.847-4.639-1.655a2.64,2.64,0,0,1-.9-2.059,3.063,3.063,0,0,1,1.277-2.463,6.51,6.51,0,0,1,4.068-1.021,6.273,6.273,0,0,1,4.052,1.124,4.754,4.754,0,0,1,1.61,3.325l2.949-.222a7.024,7.024,0,0,0-1.141-3.658,6.579,6.579,0,0,0-3.037-2.447,11.675,11.675,0,0,0-4.56-.831,11.083,11.083,0,0,0-4.266.792,6.187,6.187,0,0,0-2.918,2.32,5.9,5.9,0,0,0-1,3.286,5.287,5.287,0,0,0,.817,2.89,6.278,6.278,0,0,0,2.482,2.162,21.139,21.139,0,0,0,4.488,1.449,41.077,41.077,0,0,1,4.139,1.132,4.7,4.7,0,0,1,2.093,1.37,3.019,3.019,0,0,1,.635,1.908,3.32,3.32,0,0,1-.659,1.987,4.3,4.3,0,0,1-2.006,1.433,8.561,8.561,0,0,1-3.108.522,8.867,8.867,0,0,1-3.568-.689,5.234,5.234,0,0,1-2.34-1.805,6.389,6.389,0,0,1-.959-2.858l-2.9.253A7.83,7.83,0,0,0,240.237,84.259Zm25.034,3.286V64.329h-3.077V87.545h3.077Zm5.654-3.286a7.4,7.4,0,0,0,3.346,2.763,13.4,13.4,0,0,0,5.289.918,10.649,10.649,0,0,0,4.48-.911,7,7,0,0,0,3.053-2.55,6.311,6.311,0,0,0,1.063-3.492,5.762,5.762,0,0,0-.968-3.3,7.049,7.049,0,0,0-3-2.367,30.759,30.759,0,0,0-5.147-1.481q-3.75-.847-4.638-1.655a2.637,2.637,0,0,1-.9-2.059,3.062,3.062,0,0,1,1.276-2.463,6.51,6.51,0,0,1,4.068-1.021,6.271,6.271,0,0,1,4.052,1.124,4.751,4.751,0,0,1,1.61,3.325l2.95-.222a7.025,7.025,0,0,0-1.142-3.658,6.579,6.579,0,0,0-3.037-2.447,11.668,11.668,0,0,0-4.56-.831,11.087,11.087,0,0,0-4.266.792,6.187,6.187,0,0,0-2.918,2.32,5.9,5.9,0,0,0-1,3.286,5.287,5.287,0,0,0,.817,2.89,6.285,6.285,0,0,0,2.482,2.162,21.139,21.139,0,0,0,4.488,1.449,41.077,41.077,0,0,1,4.139,1.132,4.692,4.692,0,0,1,2.093,1.37,3.019,3.019,0,0,1,.635,1.908,3.325,3.325,0,0,1-.658,1.987,4.315,4.315,0,0,1-2.006,1.433,8.567,8.567,0,0,1-3.109.522,8.867,8.867,0,0,1-3.568-.689,5.236,5.236,0,0,1-2.339-1.805,6.377,6.377,0,0,1-.96-2.858l-2.9.253A7.822,7.822,0,0,0,270.925,84.259Zm30.425,3.286V67.069h7.692v-2.74H290.614v2.74h7.66V87.545h3.076Zm28.261,0v-2.74H315.338V76.9H328.2V74.179H315.338v-7.11h13.734v-2.74H312.261V87.545h17.35Zm7.121,0V67.782l6.724,19.763h2.775l6.756-19.431V87.545h2.966V64.329h-4.139l-5.567,16.153q-0.84,2.455-1.237,3.721-0.348-1.14-1.11-3.436l-5.5-16.438h-4.631V87.545h2.966Zm24.9,0,2.554-7.031h9.721l2.712,7.031h3.5l-9.515-23.215h-3.315l-8.928,23.215h3.266Zm6-16.343a29.576,29.576,0,0,0,1.253-4.434q0.539,1.885,1.649,4.814l2.427,6.429h-7.882ZM382.81,84.259a7.4,7.4,0,0,0,3.347,2.763,13.388,13.388,0,0,0,5.288.918,10.654,10.654,0,0,0,4.481-.911,7,7,0,0,0,3.053-2.55,6.31,6.31,0,0,0,1.062-3.492,5.769,5.769,0,0,0-.967-3.3,7.047,7.047,0,0,0-3-2.367,30.739,30.739,0,0,0-5.146-1.481q-3.75-.847-4.639-1.655a2.64,2.64,0,0,1-.9-2.059,3.063,3.063,0,0,1,1.277-2.463,6.51,6.51,0,0,1,4.068-1.021,6.275,6.275,0,0,1,4.052,1.124,4.754,4.754,0,0,1,1.61,3.325l2.949-.222a7.016,7.016,0,0,0-1.142-3.658,6.568,6.568,0,0,0-3.037-2.447,11.666,11.666,0,0,0-4.559-.831,11.083,11.083,0,0,0-4.266.792,6.187,6.187,0,0,0-2.918,2.32,5.9,5.9,0,0,0-1,3.286,5.3,5.3,0,0,0,.816,2.89,6.292,6.292,0,0,0,2.482,2.162,21.18,21.18,0,0,0,4.488,1.449,41.042,41.042,0,0,1,4.14,1.132,4.7,4.7,0,0,1,2.093,1.37,3.018,3.018,0,0,1,.634,1.908,3.319,3.319,0,0,1-.658,1.987,4.309,4.309,0,0,1-2.006,1.433,8.565,8.565,0,0,1-3.108.522,8.875,8.875,0,0,1-3.569-.689,5.236,5.236,0,0,1-2.339-1.805,6.389,6.389,0,0,1-.959-2.858l-2.9.253A7.821,7.821,0,0,0,382.81,84.259ZM456.338,153.9"/>
</svg>
